<svg xmlns="http://www.w3.org/2000/svg" viewBox="0 0 97.502 97.502"><g fill="#F61C0D"><path d="M20.064 37.75c-.21-.723-.824-1.628-1.467-1.86-1.05-.377-2.273-.34-3.427-.332-.41.003-1.042.345-1.188.694-.805 1.93-1.612 3.872-2.184 5.876-.604 2.117-.94 4.31-1.433 6.625-.22-.37-.396-.637-.545-.918-1.092-2.09-2.17-4.184-3.265-6.27-1.1-2.1-1.718-2.412-4.084-2.022-.587.095-1.187.235-1.728.478-.27.123-.58.513-.59.79-.17 4.838-.353 9.67.385 14.49.51 3.344 1.13 3.775 4.325 2.552.16-.062.305-.152.464-.22.722-.303 1.05-.79.92-1.615-.228-1.428-.39-2.867-.574-4.302l.2-.016c.964 1.564 1.957 3.11 2.882 4.7.758 1.292 1.645 2.137 3.303 1.643.643-.192 1.386-.062 2.028-.258.446-.136.965-.5 1.16-.9.268-.558.335-1.243.37-1.88.156-2.693.263-5.393.404-8.087.022-.496.12-.99.2-1.585 1.446 4.624 2.857 9.054 4.202 13.507.234.777.5 1.1 1.328.854 1.146-.336 2.31-.604 3.256-.846-1.04-4.583-2.033-9.043-3.062-13.497-.585-2.542-1.154-5.096-1.88-7.6zM97.396 43.19c-.214-1.93-.773-3.8-3.12-4.344-.864-.202-1.653-.8-2.518-.93-.916-.133-2.023-.207-2.806.182-2.914 1.453-4.698 3.98-5.515 7.054-.744 2.796-1.13 5.688-1.702 8.532-.063.326-.233.767-.488.9-1.37.712-1.46 1.513-.345 2.565.376.353.637.954.717 1.478.493 3.16.907 6.333 1.394 9.497.054.36.38.96.6.972 1.308.056 2.618-.03 3.952-.07-1.284-5.257-1.6-8.622-1.063-10.956.82-.298 1.736-.426 2.395-.908 1.75-1.285 3.405-2.7 5.064-4.103 3.09-2.603 3.852-6.08 3.434-9.87zm-10.75 10.394c.932-4.504 1.492-9.02 5.252-12.28 1.806 4.64-.49 9.817-5.25 12.28zM35.09 56.913c-1.852.844-3.26.516-4.322-1.124-1.095-1.69-1.003-3.566-.75-5.453 2.097.107 4.048.207 6.002.313.746.04.96-.323 1.13-1.037.678-2.826.123-5.626-.034-8.434-.088-1.605-.46-2.938-2.478-3.287-1.82-.314-3.446-.886-5.12.62-1.68 1.515-3.255 2.96-3.9 5.248-.803 2.844-.715 5.733-.76 8.628-.038 2.46.84 4.243 3.03 5.643 3.025 1.933 8.852 2.073 11.882-.09-1.327-1.382-3.058-1.764-4.68-1.027zM30.613 45.65c.288-1.053.774-2.05 1.172-3.075l.432.108c.036 1.574.07 3.15.106 4.827-2.133-.093-2.187-.108-1.71-1.86z"/><path d="M52.086 55.628c-.357-.092-.827-.047-1.163.113-.77.372-1.44.978-2.234 1.258-1.32.464-2.637.41-3.655-.76-1.233-1.42-2.237-2.92-1.538-5.053 2.185.298 4.35 1.067 6.324-.178.198-2.29.375-4.458.578-6.618.177-1.82.444-3.633.538-5.456.02-.434-.396-1.102-.788-1.305-1.058-.537-2.19-.96-3.337-1.27-.527-.144-1.41-.15-1.692.17-1.543 1.75-3.34 3.44-4.308 5.5-1.356 2.89-2.17 6.024-2.06 9.357.116 3.448 2.09 6.332 5.404 7.177.907.23 1.875.217 2.793.417 2.452.53 4.497-.46 6.547-1.508-.013-1.065-.544-1.628-1.408-1.844zm-6.2-13.13c.138.032.275.064.414.098-.02 1.548.036 3.102-.085 4.642-.142 1.84-.273 1.875-2.442 1.22.706-1.997 1.41-3.98 2.112-5.96z"/><path d="M61.66 46.4c-.02.275-.324.524-.5.786-.123-.326-.36-.657-.345-.976.04-.83.288-1.656.278-2.48-.048-3.764-.275-7.528-.192-11.286.054-2.446.17-2.567-2.112-3.592-2.224-1-3.273-.425-3.334 2.023-.058 2.31.032 4.628.208 6.93.248 3.19.645 6.368.995 9.74-.938-.04-1.78-.07-2.616-.12-.998-.06-1.69.293-1.77 1.375-.086 1.095.587 1.385 1.54 1.402 1.016.02 2.028.106 3.128.168.14 1.747.286 3.36.396 4.974.11 1.602.183 3.205.275 4.89l3.42-.567c-.066-1.584-.146-3.034-.18-4.488-.037-1.45.038-2.905-.064-4.35-.062-.822.383-.786.914-.854 1.507-.19 3.008-.41 4.51-.62.068-.15.14-.304.206-.454-1.206-1.077-2.366-2.216-3.646-3.197-.52-.396-1.04-.1-1.11.696zM79.658 44.818c-.588-.254-1.147-.596-1.762-.764-.406-.113-1.065-.162-1.28.07-.363.387-.604 1.01-.636 1.553-.046.75.22 1.512.223 2.27.013 3.248-.783 6.184-3.54 8.536-.13-.428-.278-.703-.297-.986-.162-2.564-.397-5.128-.422-7.696-.023-2.512.027-2.585-2.335-3.624-.355-.155-.7-.345-1.063-.463-1.215-.392-1.812.003-1.854 1.275-.033.896-.063 1.813.082 2.692.513 3.067 1.024 6.138 1.696 9.173.254 1.16 1.107 2.105 2.44 2.14 1.146.026 2.326-.047 3.438-.308.623-.145 1.214-.683 1.678-1.177.68-.726 1.198-1.6 1.847-2.356 1.813-2.12 3.293-4.333 3.396-7.293.054-1.45-.248-2.457-1.612-3.042z"/></g></svg>
